<svg id="visual" viewBox="0 0 960 540" width="960" height="540" xmlns="http://www.w3.org/2000/svg" xmlns:xlink="http://www.w3.org/1999/xlink" version="1.1"><rect x="0" y="0" width="960" height="540" fill="#1c082c"></rect><defs><linearGradient id="grad1_0" x1="43.8%" y1="0%" x2="100%" y2="100%"><stop offset="14.444444444444446%" stop-color="#1c082c" stop-opacity="1"></stop><stop offset="85.55555555555554%" stop-color="#1c082c" stop-opacity="1"></stop></linearGradient></defs><defs><linearGradient id="grad2_0" x1="0%" y1="0%" x2="56.3%" y2="100%"><stop offset="14.444444444444446%" stop-color="#1c082c" stop-opacity="1"></stop><stop offset="85.55555555555554%" stop-color="#1c082c" stop-opacity="1"></stop></linearGradient></defs><g transform="translate(960, 0)"><path d="M0 432C-37.7 426.7 -75.5 421.4 -109.5 408.6C-143.5 395.7 -173.8 375.3 -207 358.5C-240.2 341.8 -276.5 328.7 -305.5 305.5C-334.5 282.3 -356.2 249 -371.5 214.5C-386.8 180 -395.7 144.4 -404.7 108.4C-413.7 72.5 -422.9 36.3 -432 0L0 0Z" fill="#a089c1"></path></g><g transform="translate(0, 540)"><path d="M0 -432C34.9 -418.1 69.8 -404.1 106.1 -396C142.5 -387.9 180.2 -385.7 215 -372.4C249.8 -359.1 281.5 -334.6 305.5 -305.5C329.4 -276.3 345.5 -242.4 362.9 -209.5C380.2 -176.6 398.8 -144.7 410.5 -110C422.2 -75.3 427.1 -37.6 432 0L0 0Z" fill="#a089c1"></path></g></svg>