<svg id="visual" viewBox="0 0 960 540" width="960" height="540" xmlns="http://www.w3.org/2000/svg" xmlns:xlink="http://www.w3.org/1999/xlink" version="1.1"><rect x="0" y="0" width="960" height="540" fill="#000000"></rect><defs><linearGradient id="grad1_0" x1="43.8%" y1="100%" x2="100%" y2="0%"><stop offset="14.444444444444446%" stop-color="#f89d13" stop-opacity="1"></stop><stop offset="85.55555555555554%" stop-color="#f89d13" stop-opacity="1"></stop></linearGradient></defs><defs><linearGradient id="grad1_1" x1="43.8%" y1="100%" x2="100%" y2="0%"><stop offset="14.444444444444446%" stop-color="#f89d13" stop-opacity="1"></stop><stop offset="85.55555555555554%" stop-color="#ad5f00" stop-opacity="1"></stop></linearGradient></defs><defs><linearGradient id="grad1_2" x1="43.8%" y1="100%" x2="100%" y2="0%"><stop offset="14.444444444444446%" stop-color="#682600" stop-opacity="1"></stop><stop offset="85.55555555555554%" stop-color="#ad5f00" stop-opacity="1"></stop></linearGradient></defs><defs><linearGradient id="grad1_3" x1="43.8%" y1="100%" x2="100%" y2="0%"><stop offset="14.444444444444446%" stop-color="#682600" stop-opacity="1"></stop><stop offset="85.55555555555554%" stop-color="#000000" stop-opacity="1"></stop></linearGradient></defs><defs><linearGradient id="grad2_0" x1="0%" y1="100%" x2="56.3%" y2="0%"><stop offset="14.444444444444446%" stop-color="#f89d13" stop-opacity="1"></stop><stop offset="85.55555555555554%" stop-color="#f89d13" stop-opacity="1"></stop></linearGradient></defs><defs><linearGradient id="grad2_1" x1="0%" y1="100%" x2="56.3%" y2="0%"><stop offset="14.444444444444446%" stop-color="#ad5f00" stop-opacity="1"></stop><stop offset="85.55555555555554%" stop-color="#f89d13" stop-opacity="1"></stop></linearGradient></defs><defs><linearGradient id="grad2_2" x1="0%" y1="100%" x2="56.3%" y2="0%"><stop offset="14.444444444444446%" stop-color="#ad5f00" stop-opacity="1"></stop><stop offset="85.55555555555554%" stop-color="#682600" stop-opacity="1"></stop></linearGradient></defs><defs><linearGradient id="grad2_3" x1="0%" y1="100%" x2="56.3%" y2="0%"><stop offset="14.444444444444446%" stop-color="#000000" stop-opacity="1"></stop><stop offset="85.55555555555554%" stop-color="#682600" stop-opacity="1"></stop></linearGradient></defs><g transform="translate(960, 540)"><path d="M-540 0C-529.2 -40.2 -518.5 -80.3 -499.2 -113.9C-479.8 -147.5 -451.9 -174.5 -440.6 -212.2C-429.2 -249.8 -434.4 -298.1 -419.8 -334.8C-405.3 -371.6 -371.1 -396.8 -336.7 -422.2C-302.3 -447.6 -267.7 -473 -227.8 -473C-187.9 -473 -142.6 -447.4 -103.7 -454.3C-64.8 -461.2 -32.4 -500.6 0 -540L0 0Z" fill="#4d0600"></path><path d="M-405 0C-396.9 -30.1 -388.9 -60.3 -374.4 -85.4C-359.9 -110.6 -339 -130.9 -330.4 -159.1C-321.9 -187.4 -325.8 -223.5 -314.9 -251.1C-304 -278.7 -278.3 -297.6 -252.5 -316.6C-226.7 -335.7 -200.8 -354.8 -170.8 -354.8C-140.9 -354.7 -106.9 -335.6 -77.8 -340.7C-48.6 -345.9 -24.3 -375.5 0 -405L0 0Z" fill="#894200"></path><path d="M-270 0C-264.6 -20.1 -259.2 -40.2 -249.6 -57C-239.9 -73.8 -226 -87.3 -220.3 -106.1C-214.6 -124.9 -217.2 -149 -209.9 -167.4C-202.7 -185.8 -185.5 -198.4 -168.3 -211.1C-151.1 -223.8 -133.9 -236.5 -113.9 -236.5C-93.9 -236.5 -71.3 -223.7 -51.8 -227.2C-32.4 -230.6 -16.2 -250.3 0 -270L0 0Z" fill="#d27e00"></path><path d="M-135 0C-132.3 -10 -129.6 -20.1 -124.8 -28.5C-120 -36.9 -113 -43.6 -110.1 -53C-107.3 -62.5 -108.6 -74.5 -105 -83.7C-101.3 -92.9 -92.8 -99.2 -84.2 -105.5C-75.6 -111.9 -66.9 -118.3 -56.9 -118.3C-47 -118.2 -35.6 -111.9 -25.9 -113.6C-16.2 -115.3 -8.1 -125.2 0 -135L0 0Z" fill="#f89d13"></path></g><g transform="translate(0, 0)"><path d="M540 0C534.4 40.5 528.8 80.9 512.8 117C496.9 153.1 470.6 184.9 449.6 216.5C428.6 248.1 412.8 279.7 397.2 316.7C381.6 353.8 366.1 396.3 336.7 422.2C307.3 448.1 264 457.2 224.8 466.7C185.6 476.2 150.5 485.9 113.7 498.2C76.9 510.5 38.5 525.2 0 540L0 0Z" fill="#4d0600"></path><path d="M405 0C400.8 30.4 396.6 60.7 384.6 87.8C372.7 114.9 353 138.7 337.2 162.4C321.4 186.1 309.6 209.8 297.9 237.5C286.2 265.3 274.6 297.2 252.5 316.6C230.5 336 198 342.9 168.6 350C139.2 357.1 112.9 364.4 85.3 373.6C57.7 382.8 28.9 393.9 0 405L0 0Z" fill="#894200"></path><path d="M270 0C267.2 20.2 264.4 40.5 256.4 58.5C248.4 76.6 235.3 92.4 224.8 108.3C214.3 124.1 206.4 139.8 198.6 158.4C190.8 176.9 183 198.2 168.3 211.1C153.6 224 132 228.6 112.4 233.4C92.8 238.1 75.2 243 56.9 249.1C38.5 255.2 19.2 262.6 0 270L0 0Z" fill="#d27e00"></path><path d="M135 0C133.6 10.1 132.2 20.2 128.2 29.3C124.2 38.3 117.7 46.2 112.4 54.1C107.1 62 103.2 69.9 99.3 79.2C95.4 88.4 91.5 99.1 84.2 105.5C76.8 112 66 114.3 56.2 116.7C46.4 119 37.6 121.5 28.4 124.5C19.2 127.6 9.6 131.3 0 135L0 0Z" fill="#f89d13"></path></g></svg>